<?xml version="1.0" encoding="utf-8"?>
<!-- Generator: Adobe Illustrator 23.0.0, SVG Export Plug-In . SVG Version: 6.00 Build 0)  -->
<svg version="1.1" id="Capa_1" xmlns="http://www.w3.org/2000/svg" xmlns:xlink="http://www.w3.org/1999/xlink" x="0px" y="0px"
	 viewBox="0 0 721 277" style="enable-background:new 0 0 721 277;" xml:space="preserve">
<style type="text/css">
	.st0{fill:#5690BA;}
	.st1{fill:#2B7DB3;}
	.st2{fill:#205387;}
	.st3{fill:#FFFFFF;}
</style>
<g>
	<g>
		<path class="st0" d="M471.4,84c10,0,20,0,29.9,0c8.9,0,14.9,5.9,15.2,14.9c0.2,3.8-0.5,7.5-1.2,11.3c-0.5,2.4-1.8,3.3-4.1,3.3
			c-9.1,0-18.3,0-27.4,0.1c-2.8,0-3.8-0.8-3-3.8c1.5-5.5-1.1-8.7-6.6-8.8c-2.2,0-4.5,0-6.7,0c-9.5,0.1-14.5,6-13.1,15.7
			c0.4,2.7,2.5,2.7,4.4,2.8c10.1,1,20.2,0.8,30.3,0.9c5.2,0,10.4,0.1,15.3,2.4c4.1,2,6.5,5,5.7,9.7c-1.6,10.1-3.3,20.3-8.6,29.3
			c-3.7,6.3-9.7,9.1-17,9.1c-23.6,0.1-47.2,0.1-70.8,0.3c-3.9,0-5.4-1.1-4.8-5.1c0.8-5.7,1.4-11.4,2.1-17.1c0.3-2.7,1-4.8,4.3-2.3
			c1.7,1.3,3.8,1.5,6,1.5c15-0.1,30.1-0.1,45.1-0.2c2.5,0,5-0.3,7.1-2c1.8-1.5,3.3-3.3,2.4-5.8c-0.8-2.3-2.9-2.2-5-2.2
			c-14.2,0-28.4-0.1-42.6,0.1c-3.7,0-7.3-0.8-10.7-1.8c-3-0.8-4.6-3.4-4-6.5c2.1-11,4.2-22.1,6.8-33c1.4-6,12-12.7,18.9-12.7
			C450.1,83.9,460.8,84,471.4,84C471.4,84,471.4,84,471.4,84z"/>
		<path class="st0" d="M570.9,171.8c-4.9,0-9.8,0.1-14.8,0c-5.3-0.1-7.8-2.4-7.1-7.6c1.3-9.6,2.9-19.1,6.2-28.3
			c1.8-4.9,5.6-7.2,10.7-7.3c9.6,0,19.1-0.1,28.7,0c5.9,0,8.5,2.9,7.5,8.9c-1.1,6.3-3,12.4-4.5,18.6c-0.8,3.6-0.6,7.5-2.9,10.8
			c-2.2,3.2-4.9,4.9-8.7,4.9C581.1,171.8,576,171.8,570.9,171.8C570.9,171.8,570.9,171.8,570.9,171.8z M577.2,137.3
			c-1.8,0-4.7-0.3-5.6,3.5c-1.5,6.4-3.1,12.9-4.6,19.3c-0.2,0.7-0.2,1.6,0.4,1.9c2.9,1.4,6,1.4,9,1c2.1-0.3,2.8-2,3.2-3.9
			c1.1-5.3,2.5-10.6,3.6-16C584.3,138,583.5,137.2,577.2,137.3z"/>
		<path class="st0" d="M667.9,171.7c-5.1,0-10.1,0.1-15.2,0c-4.9-0.1-6.6-1.6-6.2-6.3c0.9-10.3,3.4-20.5,6.1-30.4
			c1.1-4.2,4.9-7.2,10.3-7.1c8.6,0.2,17.1,0,25.7,0c5.3,0,8.1,3.1,7.2,8.4c-0.8,5.3-2.2,10.4-3.2,15.7c-0.5,2.6-2.2,2.9-4.4,2.9
			c-6.6,0-13.2,0.1-19.8,0c-3.3-0.1-4.6,1.2-4.6,4.4c0,3.3,1.9,4,4.7,4c6.2,0,12.4,0.5,18.4-1.3c2.6-0.8,2.9,0.4,2.3,2.6
			c-1.8,7.2-1.7,7.3-9.2,7.2c-2.1,0-4.2,0-6.3,0C671.8,171.7,669.8,171.7,667.9,171.7C667.9,171.7,667.9,171.7,667.9,171.7z
			 M673.5,145.6c2.1-0.6,5.7,1.5,6.8-2.6c0.6-2.2,1.7-4.8-1.2-6.4c-3-1.6-9.7,0-11.1,2.5c-2.4,4.6-1.3,6.4,3.9,6.4
			C672.4,145.6,672.8,145.6,673.5,145.6z"/>
		<path class="st0" d="M385,128.1c4.9,0,9.8-0.1,14.8,0c5,0.1,6.5,1.9,6.7,7c0.1,3.2-1.6,5.9-1.7,9c0,1.5-1.8,1.4-3.1,1.4
			c-3.2,0-6.5-0.1-9.7,0c-2.6,0.1-3.6-1-3.3-3.5c0.3-2.9-0.5-4.9-3.9-5.1c-5.1-0.3-7.5,0.8-8.3,4.4c-1.2,5.2-2.4,10.4-3.3,15.6
			c-0.3,1.9-2,4.6,1.1,5.8c3.6,1.4,9.3,0,9.6-2.6c0.9-7.3,5.8-6.7,11-6.6c9,0.2,9,0.1,6.1,8.7c-2.6,7.8-5.1,9.4-13.2,9.3
			c-7.7-0.1-15.5,0-23.2-0.1c-2,0-3.9-0.2-5.7-1c-3.2-1.5-4.8-3.5-4-7.2c1.9-8.9,3.3-17.9,5.4-26.8c1.5-6.3,5.2-8.6,11.7-8.6
			C376.3,128.1,380.6,128.1,385,128.1C385,128.1,385,128.1,385,128.1z"/>
		<path class="st0" d="M334,128.5c5.1,0,10.1,0,15.2,0c3.9,0,5.6,1.7,5.7,5.6c0,0.1,0,0.3,0,0.4c-0.7,3.5,0.9,8.5-2.1,10.3
			c-3.8,2.4-9,0.6-13.6,0.8c-1.7,0-1.9-1.3-1.8-2.7c0.3-3.2-0.4-5.5-4.4-5.6c-6.2-0.1-8.4,1.1-9,5.6c-0.7,4.7-0.9,9.5-2.3,14.1
			c-0.6,1.9-1.4,4.2,0.8,5.8c1.7,1.2,7.9,0.3,9.1-1.2c0.7-0.9,1.4-1.9,1.5-3c0.3-4.3,2.8-5.2,6.5-4.8c2.9,0.3,5.9,0,8.8,0.1
			c2.4,0,3.3,1.1,2.5,3.5c-0.5,1.7-0.6,3.6-1.4,5.3c-3.5,7.7-5,9.4-12.7,9.2c-7.3-0.2-14.6,0-21.9,0c-1.8,0-3.7,0-5.5-0.3
			c-5.2-0.9-7.1-2.9-6.2-8c1.6-9.5,3.7-19,6-28.4c1.1-4.5,4.4-6.5,9.1-6.6C323.6,128.4,328.8,128.4,334,128.5
			C334,128.4,334,128.4,334,128.5z"/>
		<path class="st0" d="M530.5,171.7c-2-0.1-3.7,0-5.3-0.3c-6.3-1.1-8.3-4.2-7-10.4c1.4-6.6,2.6-13.2,4.1-19.8
			c0.5-2.3,0.3-3.6-2.4-3.5c-2.1,0.1-4.5-0.2-3.7-3c0.7-2.5-0.4-6.9,3.9-6.8c4.6,0.2,6-1.7,5.9-5.8c0-2.3,1.5-2.7,3.4-2.7
			c3.2,0,6.5,0.1,9.7,0c2.8-0.1,4.1,0.9,3,3.7c-1.5,4,0.2,5,3.9,4.8c1.9-0.1,4.7-0.9,5,2.3c0.5,4.2-1.9,7-5.5,7.2
			c-6.5,0.2-6.4,0.3-7.5,7c-0.7,4.1-1.7,8.2-2.6,12.3c-0.9,4.4-0.1,5.4,4.3,5.8c1.4,0.1,4.1-1.1,3.8,1.6c-0.3,2.5,0.6,6.4-3.8,6.9
			C536.6,171.3,533.4,171.5,530.5,171.7z"/>
		<path class="st0" d="M501.4,181.2c-61.3,0-122.6,0-183.8,0c-6.5,0-12.9,0.1-19.4,0.1c-1.4,0-3.6,0.9-3.8-1.4
			c-0.2-2.7,2.3-1.8,3.8-1.8c34.6,0,69.2,0,103.7,0c100.4,0,200.7,0,301.1,0.1c1.8,0,5.2-1.4,5.2,1.5c0,2.8-3.4,1.5-5.2,1.5
			C635.8,181.3,568.6,181.3,501.4,181.2z"/>
		<path class="st0" d="M608.9,171.7c-2-0.2-5.3,1.2-7.1-0.6c-2.1-2,0.9-4.4,1.4-6.8c1.8-9.4,4-18.6,6.1-28c0.1-0.5,0.2-1.1,0.3-1.7
			c1.1-7,1.1-7.1,8.1-6.9c7,0.2,13.9,0.8,20.9,0.1c5-0.5,8.5,4.9,6.8,9.7c-0.4,1.2-1.2,1.5-2.3,1.4c-3.3-0.2-6.5,0.7-9.7-1.5
			c-3.8-2.6-9.2,0-10,4.6c-1.5,9.1-4.3,18-5.2,27.2c-0.2,1.9-1.3,2.3-2.8,2.3C613.5,171.7,611.5,171.7,608.9,171.7z"/>
	</g>
	<circle class="st1" cx="144.2" cy="137.1" r="133.9"/>
	<path class="st2" d="M88.4,103.3l15.7,18.5l118.1,0l-67.1,148.8c0,0-64.1,7.5-108.3-41.7c0,0-18.2-15.9-29.5-49.1
		c45.9-81.5,45.5-79.9,45.5-79.9L88.4,103.3z"/>
	<g>
		<path class="st3" d="M225.7,119.3c-1.2,2.2-1.7,4.5-2.5,6.8c-5.3,15.7-10.5,31.4-15.7,47.1c-0.9,2.7-2.4,3.6-6,3.6
			c-27.9,0-55.9,0-83.8,0c-4,0-5.2-0.8-6.2-3.8c-7.6-22.9-15.3-45.7-22.9-68.6c-0.2-0.7-0.6-1-1.7-1c-6.4,0-12.7,0-19.1,0
			c-3.7,0-6.1-2.7-4.6-5.2c0.8-1.4,2.3-2.2,4.2-2.2c8.1,0,16.1,0,24.2,0c2.6,0,4.2,1.1,4.9,3.2c1.6,4.6,3.2,9.3,4.7,13.9
			c0.3,1,0.9,1.2,2.1,1.2c38.7,0,77.5,0,116.2,0c2.8,0,4.9,0.7,6.1,2.7C225.7,117.8,225.7,118.6,225.7,119.3z M104.1,121.8
			c1.2,3.5,2.3,6.9,3.4,10.3c0.2,0.6,0.5,0.7,1.2,0.7c9,0,17.9,0,26.9,0c0.9,0,1-0.3,1-0.9c0-3.1,0-6.2,0-9.3c0-0.5-0.1-0.8-0.9-0.8
			C125.2,121.8,114.8,121.8,104.1,121.8z M214.9,121.8c-10.6,0-21.1,0-31.5,0c-0.8,0-0.9,0.3-0.9,0.8c0,3.1,0,6.3,0,9.4
			c0,0.6,0.2,0.8,1,0.8c9,0,18,0,27,0c0.6,0,0.9-0.1,1.1-0.6C212.5,128.7,213.7,125.3,214.9,121.8z M159.7,121.8
			c-4.1,0-8.3,0-12.4,0c-0.9,0-1.3,0.1-1.3,0.9c0.1,3.1,0.1,6.1,0,9.2c0,0.7,0.2,0.9,1.1,0.9c8.2,0,16.4,0,24.6,0c1,0,1.2-0.3,1.2-1
			c0-3-0.1-6,0-9c0-0.8-0.2-1-1.2-1C167.7,121.8,163.7,121.8,159.7,121.8z M159.5,140.1c-4.1,0-8.3,0-12.4,0c-0.9,0-1.2,0.2-1.1,0.9
			c0,3.1,0.1,6.1,0,9.2c0,0.8,0.4,0.9,1.3,0.9c8.2,0,16.3,0,24.5,0c1,0,1.2-0.2,1.2-1c-0.1-3-0.1-6,0-9c0-0.9-0.4-1-1.3-1
			C167.6,140.1,163.6,140.1,159.5,140.1z M159.5,169.4c4.1,0,8.2,0,12.2,0c0.9,0,1.3-0.1,1.3-0.9c-0.1-3.1-0.1-6.1,0-9.2
			c0-0.7-0.2-0.9-1.1-0.9c-8.2,0-16.4,0-24.6,0c-1,0-1.2,0.3-1.2,1c0,3,0.1,5.9,0,8.9c0,0.9,0.2,1.1,1.4,1.1
			C151.4,169.4,155.4,169.4,159.5,169.4z M110.2,140.1c1.2,3.5,2.3,6.9,3.4,10.3c0.2,0.6,0.5,0.7,1.2,0.7c6.9,0,13.9,0,20.8,0
			c0.8,0,1-0.2,1-0.8c0-3.1,0-6.3,0-9.4c0-0.6-0.2-0.8-1-0.8C127.2,140.1,118.8,140.1,110.2,140.1z M195.6,140.1c-4,0-8,0-12.1,0
			c-0.9,0-1.1,0.2-1.1,0.9c0,3.1,0,6.2,0,9.3c0,0.7,0.2,0.8,1.1,0.8c6.8,0,13.7,0,20.5,0c0.8,0,1.2-0.1,1.4-0.8c1-3.1,2-6.1,3.1-9.2
			c0.3-0.9-0.1-1-1.1-1C203.4,140.1,199.5,140.1,195.6,140.1z M126.6,158.5c-3,0-5.9,0-8.9,0c-1.2,0-1.3,0.3-1,1c1,3,2.1,6,3,9
			c0.2,0.7,0.6,0.9,1.5,0.9c4.7,0,9.4,0,14.1,0c0.9,0,1.3-0.1,1.3-0.9c-0.1-3-0.1-6.1,0-9.2c0-0.8-0.4-0.9-1.3-0.9
			C132.4,158.5,129.5,158.5,126.6,158.5z M190.6,169.4c2.4,0,4.8,0,7.1,0c0.8,0,1.3-0.1,1.5-0.8c1-3.1,2.1-6.3,3.1-9.4
			c0.2-0.6,0.1-0.8-0.8-0.8c-6.1,0-12.2,0-18.3,0c-0.8,0-1,0.2-0.9,0.8c0,3.1,0,6.3,0,9.4c0,0.7,0.3,0.8,1.1,0.8
			C185.9,169.4,188.3,169.4,190.6,169.4z"/>
		<circle class="st3" cx="136.6" cy="190.3" r="10.8"/>
		<circle class="st3" cx="183.3" cy="190.3" r="10.8"/>
	</g>
</g>
</svg>
