<?xml version="1.0" encoding="utf-8"?>
<!-- Generator: Adobe Illustrator 23.0.0, SVG Export Plug-In . SVG Version: 6.00 Build 0)  -->
<svg version="1.1" id="Capa_1" xmlns="http://www.w3.org/2000/svg" xmlns:xlink="http://www.w3.org/1999/xlink" x="0px" y="0px"
	 viewBox="0 0 721 277" style="enable-background:new 0 0 721 277;" xml:space="preserve">
<style type="text/css">
	.st0{fill:#FFFFFF;}
	.st1{fill:none;stroke:#FFFFFF;stroke-width:5;stroke-miterlimit:10;}
</style>
<g>
	<g>
		<path class="st0" d="M472.9,85.3c10,0,20,0,30,0c8.9,0,14.9,5.9,15.3,14.9c0.2,3.8-0.5,7.6-1.2,11.3c-0.5,2.4-1.8,3.3-4.1,3.3
			c-9.2,0-18.3,0-27.5,0.1c-2.8,0-3.8-0.8-3-3.8c1.5-5.5-1.1-8.8-6.7-8.8c-2.3,0-4.5,0-6.8,0c-9.5,0.1-14.5,6.1-13.1,15.7
			c0.4,2.7,2.5,2.7,4.4,2.8c10.1,1,20.2,0.8,30.4,0.9c5.2,0,10.4,0.1,15.3,2.5c4.1,2,6.5,5.1,5.7,9.7c-1.6,10.2-3.3,20.4-8.6,29.3
			c-3.7,6.3-9.7,9.1-17,9.1c-23.6,0.1-47.3,0.1-70.9,0.3c-3.9,0-5.4-1.1-4.9-5.1c0.8-5.7,1.4-11.4,2.1-17.1c0.3-2.7,1-4.9,4.4-2.3
			c1.7,1.3,3.9,1.5,6,1.5c15.1-0.1,30.1-0.1,45.2-0.2c2.5,0,5-0.3,7.1-2c1.8-1.5,3.3-3.3,2.4-5.8c-0.8-2.3-2.9-2.3-5-2.2
			c-14.2,0-28.5-0.1-42.7,0.1c-3.8,0-7.3-0.8-10.7-1.8c-3-0.8-4.6-3.4-4-6.5c2.1-11,4.2-22.1,6.8-33c1.4-6,12-12.7,18.9-12.8
			C451.5,85.2,462.2,85.3,472.9,85.3C472.9,85.3,472.9,85.3,472.9,85.3z"/>
		<path class="st0" d="M572.6,173.2c-4.9,0-9.9,0.1-14.8,0c-5.3-0.1-7.8-2.4-7.1-7.6c1.3-9.6,2.9-19.2,6.2-28.3
			c1.8-4.9,5.6-7.3,10.7-7.3c9.6,0,19.1-0.1,28.7,0c5.9,0,8.6,2.9,7.5,8.9c-1.1,6.3-3,12.4-4.5,18.6c-0.8,3.6-0.6,7.5-2.9,10.8
			c-2.2,3.2-4.9,4.9-8.7,4.9C582.7,173.2,577.6,173.3,572.6,173.2C572.6,173.2,572.6,173.2,572.6,173.2z M578.9,138.7
			c-1.8,0-4.8-0.3-5.6,3.5c-1.5,6.4-3.1,12.9-4.6,19.3c-0.2,0.7-0.2,1.6,0.4,1.9c2.9,1.4,6,1.4,9.1,1c2.1-0.3,2.8-2,3.2-3.9
			c1.1-5.4,2.5-10.7,3.6-16C585.9,139.4,585.2,138.6,578.9,138.7z"/>
		<path class="st0" d="M669.7,173.2c-5.1,0-10.1,0.1-15.2,0c-4.9-0.1-6.6-1.6-6.2-6.3c0.9-10.4,3.4-20.5,6.1-30.5
			c1.1-4.2,4.9-7.2,10.3-7.1c8.6,0.2,17.2,0,25.7,0c5.3,0,8.1,3.2,7.2,8.4c-0.9,5.3-2.2,10.4-3.2,15.7c-0.5,2.6-2.2,2.9-4.4,2.9
			c-6.6,0-13.2,0.1-19.8,0c-3.3-0.1-4.6,1.2-4.6,4.4c0,3.3,1.9,4,4.7,4c6.2,0,12.4,0.5,18.4-1.3c2.6-0.8,2.9,0.4,2.3,2.6
			c-1.8,7.2-1.7,7.3-9.2,7.3c-2.1,0-4.2,0-6.3,0C673.6,173.2,671.7,173.2,669.7,173.2C669.7,173.2,669.7,173.2,669.7,173.2z
			 M675.4,147c2.1-0.6,5.7,1.5,6.8-2.6c0.6-2.2,1.7-4.8-1.2-6.4c-3-1.6-9.7,0-11.1,2.5c-2.4,4.6-1.3,6.4,3.9,6.4
			C674.2,147,674.6,147,675.4,147z"/>
		<path class="st0" d="M386.3,129.5c4.9,0,9.9-0.1,14.8,0c5.1,0.1,6.5,1.9,6.7,7c0.1,3.2-1.6,5.9-1.7,9c0,1.5-1.8,1.4-3.1,1.4
			c-3.2,0-6.5-0.1-9.7,0c-2.6,0.1-3.6-1-3.3-3.5c0.3-2.9-0.5-4.9-4-5.1c-5.1-0.3-7.5,0.8-8.3,4.4c-1.2,5.2-2.4,10.4-3.3,15.7
			c-0.3,2-2,4.6,1.1,5.8c3.6,1.4,9.3,0,9.7-2.6c0.9-7.4,5.8-6.7,11-6.6c9,0.2,9,0.1,6.1,8.7c-2.6,7.8-5.1,9.4-13.3,9.4
			c-7.7-0.1-15.5,0-23.2-0.1c-2,0-3.9-0.2-5.8-1c-3.2-1.5-4.8-3.5-4.1-7.2c1.9-8.9,3.3-18,5.4-26.8c1.5-6.3,5.2-8.6,11.7-8.6
			C377.5,129.5,381.9,129.5,386.3,129.5C386.3,129.5,386.3,129.5,386.3,129.5z"/>
		<path class="st0" d="M335.1,129.8c5.1,0,10.1,0,15.2,0c4,0,5.6,1.7,5.7,5.6c0,0.1,0,0.3,0,0.4c-0.7,3.5,0.9,8.5-2.1,10.4
			c-3.8,2.4-9,0.6-13.6,0.8c-1.7,0-1.9-1.3-1.8-2.8c0.3-3.2-0.4-5.5-4.4-5.6c-6.2-0.1-8.4,1.1-9.1,5.6c-0.7,4.7-0.9,9.5-2.3,14.1
			c-0.6,1.9-1.4,4.2,0.8,5.8c1.7,1.2,7.9,0.3,9.1-1.2c0.7-0.9,1.4-1.9,1.5-3c0.3-4.3,2.8-5.2,6.6-4.8c2.9,0.3,5.9,0,8.9,0.1
			c2.4,0,3.3,1.1,2.6,3.5c-0.5,1.7-0.6,3.7-1.4,5.3c-3.5,7.7-5,9.4-12.7,9.2c-7.3-0.2-14.6,0-22,0c-1.8,0-3.7,0-5.5-0.3
			c-5.2-0.9-7.1-2.9-6.2-8c1.6-9.5,3.7-19,6-28.5c1.1-4.5,4.4-6.6,9.1-6.6C324.7,129.8,329.9,129.8,335.1,129.8
			C335.1,129.8,335.1,129.8,335.1,129.8z"/>
		<path class="st0" d="M532,173.2c-2-0.1-3.7,0-5.3-0.3c-6.3-1.1-8.3-4.2-7-10.4c1.4-6.6,2.6-13.2,4.1-19.8c0.5-2.3,0.3-3.6-2.4-3.5
			c-2.1,0.1-4.5-0.2-3.7-3c0.7-2.5-0.4-6.9,3.9-6.8c4.6,0.2,6-1.7,5.9-5.8c0-2.3,1.5-2.7,3.4-2.7c3.2,0,6.5,0.1,9.7,0
			c2.8-0.1,4.1,0.9,3,3.8c-1.5,4,0.2,5,3.9,4.8c1.9-0.1,4.7-0.9,5,2.3c0.5,4.2-1.9,7.1-5.5,7.2c-6.5,0.2-6.4,0.3-7.5,7
			c-0.7,4.1-1.7,8.2-2.6,12.3c-0.9,4.4-0.1,5.5,4.3,5.8c1.4,0.1,4.1-1.1,3.8,1.6c-0.3,2.6,0.6,6.4-3.8,6.9
			C538.2,172.8,535,173,532,173.2z"/>
		<path class="st0" d="M502.9,182.7c-61.4,0-122.8,0-184.2,0c-6.5,0-13,0.1-19.4,0.1c-1.4,0-3.6,0.9-3.8-1.4
			c-0.2-2.7,2.4-1.8,3.8-1.8c34.6,0,69.3,0,103.9,0c100.6,0,201.1,0,301.7,0.1c1.8,0,5.2-1.4,5.2,1.5c0,2.8-3.4,1.5-5.2,1.5
			C637.6,182.8,570.2,182.7,502.9,182.7z"/>
		<path class="st0" d="M610.6,173.1c-2-0.2-5.3,1.2-7.1-0.6c-2.1-2,0.9-4.5,1.4-6.8c1.8-9.4,4-18.7,6.1-28c0.1-0.5,0.2-1.1,0.3-1.7
			c1.1-7,1.1-7.1,8.1-6.9c7,0.2,14,0.8,21,0.1c5-0.5,8.5,4.9,6.8,9.7c-0.4,1.2-1.2,1.5-2.3,1.4c-3.3-0.2-6.5,0.7-9.7-1.5
			c-3.8-2.6-9.2,0-10,4.6c-1.5,9.1-4.3,18-5.2,27.3c-0.2,1.9-1.3,2.3-2.9,2.3C615.2,173.1,613.2,173.1,610.6,173.1z"/>
	</g>
	<circle class="st1" cx="145" cy="138.5" r="134.1"/>
	<g>
		<path class="st0" d="M226.6,120.7c-1.2,2.2-1.7,4.5-2.5,6.8c-5.3,15.7-10.5,31.5-15.7,47.2c-0.9,2.7-2.4,3.6-6,3.6
			c-28,0-56,0-84,0c-4,0-5.2-0.8-6.2-3.8c-7.6-22.9-15.3-45.8-22.9-68.7c-0.2-0.7-0.6-1-1.7-1c-6.4,0-12.7,0-19.1,0
			c-3.7,0-6.1-2.7-4.6-5.2c0.8-1.4,2.3-2.2,4.3-2.2c8.1,0,16.1,0,24.2,0c2.6,0,4.2,1.1,4.9,3.2c1.6,4.7,3.2,9.3,4.7,14
			c0.3,1,0.9,1.2,2.1,1.2c38.8,0,77.7,0,116.5,0c2.9,0,4.9,0.7,6.1,2.7C226.6,119.2,226.6,119.9,226.6,120.7z M104.8,123.2
			c1.2,3.5,2.3,6.9,3.4,10.3c0.2,0.6,0.5,0.7,1.2,0.7c9,0,18,0,26.9,0c0.9,0,1-0.3,1-0.9c0-3.1,0-6.2,0-9.3c0-0.5-0.1-0.8-0.9-0.8
			C126,123.2,115.5,123.2,104.8,123.2z M215.8,123.2c-10.6,0-21.1,0-31.6,0c-0.8,0-0.9,0.3-0.9,0.8c0,3.1,0,6.3,0,9.4
			c0,0.6,0.2,0.8,1,0.8c9,0,18,0,27,0c0.6,0,0.9-0.1,1.1-0.6C213.4,130.1,214.6,126.7,215.8,123.2z M160.5,123.2
			c-4.1,0-8.3,0-12.4,0c-0.9,0-1.3,0.1-1.3,0.9c0.1,3.1,0.1,6.1,0,9.2c0,0.7,0.2,0.9,1.1,0.9c8.2,0,16.5,0,24.7,0c1,0,1.2-0.3,1.2-1
			c0-3-0.1-6,0-9.1c0-0.8-0.2-1-1.2-1C168.5,123.2,164.5,123.2,160.5,123.2z M160.4,141.5c-4.1,0-8.3,0-12.4,0
			c-0.9,0-1.2,0.2-1.1,0.9c0,3.1,0.1,6.1,0,9.2c0,0.8,0.4,0.9,1.3,0.9c8.2,0,16.4,0,24.5,0c1,0,1.2-0.2,1.2-1c-0.1-3-0.1-6,0-9.1
			c0-0.9-0.4-1-1.3-1C168.4,141.6,164.4,141.5,160.4,141.5z M160.3,170.9c4.1,0,8.2,0,12.3,0c0.9,0,1.3-0.1,1.3-0.9
			c-0.1-3.1-0.1-6.1,0-9.2c0-0.7-0.2-0.9-1.1-0.9c-8.2,0-16.5,0-24.7,0c-1,0-1.2,0.3-1.2,1c0,3,0.1,6,0,8.9c0,0.9,0.2,1.1,1.4,1.1
			C152.2,170.9,156.2,170.9,160.3,170.9z M111,141.5c1.2,3.5,2.3,6.9,3.4,10.3c0.2,0.6,0.5,0.7,1.2,0.7c6.9,0,13.9,0,20.8,0
			c0.8,0,1-0.2,1-0.8c0-3.1,0-6.3,0-9.4c0-0.6-0.2-0.8-1-0.8C128,141.5,119.5,141.5,111,141.5z M196.5,141.5c-4,0-8.1,0-12.1,0
			c-0.9,0-1.1,0.2-1.1,0.9c0,3.1,0,6.2,0,9.3c0,0.7,0.2,0.8,1.1,0.8c6.8,0,13.7,0,20.5,0c0.8,0,1.2-0.1,1.4-0.8c1-3.1,2-6.1,3.1-9.2
			c0.3-0.9-0.1-1-1.1-1C204.3,141.6,200.4,141.5,196.5,141.5z M127.3,159.9c-3,0-5.9,0-8.9,0c-1.2,0-1.3,0.3-1,1c1,3,2.1,6,3,9.1
			c0.2,0.7,0.6,0.9,1.5,0.9c4.7,0,9.4,0,14.2,0c0.9,0,1.3-0.1,1.3-0.9c-0.1-3.1-0.1-6.1,0-9.2c0-0.8-0.4-0.9-1.3-0.9
			C133.2,159.9,130.2,159.9,127.3,159.9z M191.5,170.9c2.4,0,4.8,0,7.2,0c0.8,0,1.3-0.1,1.5-0.8c1-3.1,2.1-6.3,3.1-9.4
			c0.2-0.6,0.1-0.8-0.8-0.8c-6.1,0-12.2,0-18.3,0c-0.8,0-1,0.2-0.9,0.8c0,3.1,0,6.3,0,9.4c0,0.7,0.3,0.8,1.1,0.8
			C186.7,170.9,189.1,170.9,191.5,170.9z"/>
		<circle class="st0" cx="137.4" cy="191.8" r="10.8"/>
		<circle class="st0" cx="184.2" cy="191.8" r="10.8"/>
	</g>
</g>
</svg>
