<?xml version="1.0" encoding="utf-8"?>
<!-- Generator: Adobe Illustrator 23.0.0, SVG Export Plug-In . SVG Version: 6.00 Build 0)  -->
<svg version="1.1" id="Capa_1" xmlns="http://www.w3.org/2000/svg" xmlns:xlink="http://www.w3.org/1999/xlink" x="0px" y="0px"
	 viewBox="0 0 32 32" style="enable-background:new 0 0 32 32;" xml:space="preserve">
<style type="text/css">
	.st0{fill:#2B7DB3;}
	.st1{fill:#205387;}
	.st2{fill:#FFFFFF;}
</style>
<g>
	<circle class="st0" cx="16" cy="16" r="16"/>
	<path class="st1" d="M9.3,12l1.9,2.2l14.1,0l-8,17.8c0,0-7.7,0.9-12.9-5c0,0-2.2-1.9-3.5-5.9c5.5-9.7,5.4-9.5,5.4-9.5L9.3,12z"/>
	<g>
		<path class="st2" d="M25.7,13.9c-0.1,0.3-0.2,0.5-0.3,0.8c-0.6,1.9-1.3,3.8-1.9,5.6c-0.1,0.3-0.3,0.4-0.7,0.4c-3.3,0-6.7,0-10,0
			c-0.5,0-0.6-0.1-0.7-0.5c-0.9-2.7-1.8-5.5-2.7-8.2C9.3,12,9.3,12,9.1,12c-0.8,0-1.5,0-2.3,0c-0.4,0-0.7-0.3-0.6-0.6
			c0.1-0.2,0.3-0.3,0.5-0.3c1,0,1.9,0,2.9,0c0.3,0,0.5,0.1,0.6,0.4c0.2,0.6,0.4,1.1,0.6,1.7c0,0.1,0.1,0.1,0.3,0.1
			c4.6,0,9.3,0,13.9,0c0.3,0,0.6,0.1,0.7,0.3C25.7,13.7,25.7,13.8,25.7,13.9z M11.2,14.2c0.1,0.4,0.3,0.8,0.4,1.2
			c0,0.1,0.1,0.1,0.1,0.1c1.1,0,2.1,0,3.2,0c0.1,0,0.1,0,0.1-0.1c0-0.4,0-0.7,0-1.1c0-0.1,0-0.1-0.1-0.1
			C13.7,14.2,12.5,14.2,11.2,14.2z M24.4,14.2c-1.3,0-2.5,0-3.8,0c-0.1,0-0.1,0-0.1,0.1c0,0.4,0,0.7,0,1.1c0,0.1,0,0.1,0.1,0.1
			c1.1,0,2.1,0,3.2,0c0.1,0,0.1,0,0.1-0.1C24.1,15,24.3,14.6,24.4,14.2z M17.8,14.2c-0.5,0-1,0-1.5,0c-0.1,0-0.2,0-0.2,0.1
			c0,0.4,0,0.7,0,1.1c0,0.1,0,0.1,0.1,0.1c1,0,2,0,2.9,0c0.1,0,0.1,0,0.1-0.1c0-0.4,0-0.7,0-1.1c0-0.1,0-0.1-0.1-0.1
			C18.8,14.2,18.3,14.2,17.8,14.2z M17.8,16.4c-0.5,0-1,0-1.5,0c-0.1,0-0.1,0-0.1,0.1c0,0.4,0,0.7,0,1.1c0,0.1,0,0.1,0.2,0.1
			c1,0,1.9,0,2.9,0c0.1,0,0.1,0,0.1-0.1c0-0.4,0-0.7,0-1.1c0-0.1,0-0.1-0.2-0.1C18.8,16.4,18.3,16.4,17.8,16.4z M17.8,19.9
			c0.5,0,1,0,1.5,0c0.1,0,0.2,0,0.2-0.1c0-0.4,0-0.7,0-1.1c0-0.1,0-0.1-0.1-0.1c-1,0-2,0-2.9,0c-0.1,0-0.1,0-0.1,0.1
			c0,0.4,0,0.7,0,1.1c0,0.1,0,0.1,0.2,0.1C16.8,19.9,17.3,19.9,17.8,19.9z M11.9,16.4c0.1,0.4,0.3,0.8,0.4,1.2
			c0,0.1,0.1,0.1,0.1,0.1c0.8,0,1.7,0,2.5,0c0.1,0,0.1,0,0.1-0.1c0-0.4,0-0.7,0-1.1c0-0.1,0-0.1-0.1-0.1C14,16.4,13,16.4,11.9,16.4z
			 M22.1,16.4c-0.5,0-1,0-1.4,0c-0.1,0-0.1,0-0.1,0.1c0,0.4,0,0.7,0,1.1c0,0.1,0,0.1,0.1,0.1c0.8,0,1.6,0,2.4,0c0.1,0,0.1,0,0.2-0.1
			c0.1-0.4,0.2-0.7,0.4-1.1c0-0.1,0-0.1-0.1-0.1C23.1,16.4,22.6,16.4,22.1,16.4z M13.9,18.6c-0.4,0-0.7,0-1.1,0
			c-0.1,0-0.2,0-0.1,0.1c0.1,0.4,0.2,0.7,0.4,1.1c0,0.1,0.1,0.1,0.2,0.1c0.6,0,1.1,0,1.7,0c0.1,0,0.2,0,0.2-0.1c0-0.4,0-0.7,0-1.1
			c0-0.1,0-0.1-0.2-0.1C14.6,18.6,14.2,18.6,13.9,18.6z M21.5,19.9c0.3,0,0.6,0,0.9,0c0.1,0,0.2,0,0.2-0.1c0.1-0.4,0.2-0.7,0.4-1.1
			c0-0.1,0-0.1-0.1-0.1c-0.7,0-1.5,0-2.2,0c-0.1,0-0.1,0-0.1,0.1c0,0.4,0,0.7,0,1.1c0,0.1,0,0.1,0.1,0.1
			C21,19.9,21.2,19.9,21.5,19.9z"/>
		<circle class="st2" cx="15.1" cy="22.4" r="1.3"/>
		<circle class="st2" cx="20.7" cy="22.4" r="1.3"/>
	</g>
</g>
</svg>
