<?xml version="1.0" encoding="utf-8"?>
<!-- Generator: Adobe Illustrator 23.0.0, SVG Export Plug-In . SVG Version: 6.00 Build 0)  -->
<svg version="1.1" id="Capa_1" xmlns="http://www.w3.org/2000/svg" xmlns:xlink="http://www.w3.org/1999/xlink" x="0px" y="0px"
	 viewBox="0 0 100 100" style="enable-background:new 0 0 100 100;" xml:space="preserve">
<style type="text/css">
	.st0{fill:#2B7DB3;}
	.st1{fill:#205387;}
	.st2{fill:#FFFFFF;}
</style>
<g>
	<circle class="st0" cx="50.1" cy="50" r="50"/>
	<path class="st1" d="M29.2,37.4l5.9,6.9l44.1,0L54.1,99.8c0,0-24,2.8-40.5-15.6c0,0-6.8-6-11-18.4c17.2-30.4,17-29.8,17-29.8
		L29.2,37.4z"/>
	<g>
		<path class="st2" d="M80.5,43.4c-0.5,0.8-0.6,1.7-0.9,2.5c-2,5.9-3.9,11.7-5.9,17.6c-0.3,1-0.9,1.3-2.2,1.3c-10.4,0-20.9,0-31.3,0
			c-1.5,0-1.9-0.3-2.3-1.4c-2.8-8.5-5.7-17.1-8.5-25.6c-0.1-0.3-0.2-0.4-0.6-0.4c-2.4,0-4.8,0-7.1,0c-1.4,0-2.3-1-1.7-1.9
			c0.3-0.5,0.9-0.8,1.6-0.8c3,0,6,0,9,0c1,0,1.6,0.4,1.8,1.2c0.6,1.7,1.2,3.5,1.7,5.2c0.1,0.4,0.3,0.5,0.8,0.5c14.5,0,28.9,0,43.4,0
			c1.1,0,1.8,0.3,2.3,1C80.5,42.8,80.5,43.1,80.5,43.4z M35.1,44.3c0.4,1.3,0.9,2.6,1.3,3.8c0.1,0.2,0.2,0.3,0.4,0.3
			c3.3,0,6.7,0,10,0c0.3,0,0.4-0.1,0.4-0.3c0-1.2,0-2.3,0-3.5c0-0.2,0-0.3-0.3-0.3C43,44.3,39.1,44.3,35.1,44.3z M76.4,44.3
			c-4,0-7.9,0-11.8,0c-0.3,0-0.3,0.1-0.3,0.3c0,1.2,0,2.3,0,3.5c0,0.2,0.1,0.3,0.4,0.3c3.4,0,6.7,0,10.1,0c0.2,0,0.3,0,0.4-0.2
			C75.6,46.9,76,45.6,76.4,44.3z M55.8,44.3c-1.5,0-3.1,0-4.6,0c-0.3,0-0.5,0-0.5,0.3c0,1.1,0,2.3,0,3.4c0,0.3,0.1,0.3,0.4,0.3
			c3.1,0,6.1,0,9.2,0c0.4,0,0.4-0.1,0.4-0.4c0-1.1,0-2.2,0-3.4c0-0.3-0.1-0.4-0.5-0.4C58.8,44.3,57.3,44.3,55.8,44.3z M55.8,51.1
			c-1.5,0-3.1,0-4.6,0c-0.3,0-0.4,0.1-0.4,0.3c0,1.1,0,2.3,0,3.4c0,0.3,0.1,0.3,0.5,0.3c3,0,6.1,0,9.1,0c0.4,0,0.5-0.1,0.5-0.4
			c0-1.1,0-2.3,0-3.4c0-0.3-0.1-0.4-0.5-0.4C58.8,51.1,57.3,51.1,55.8,51.1z M55.8,62.1c1.5,0,3,0,4.6,0c0.3,0,0.5,0,0.5-0.3
			c0-1.1,0-2.3,0-3.4c0-0.3-0.1-0.3-0.4-0.3c-3.1,0-6.1,0-9.2,0c-0.4,0-0.4,0.1-0.4,0.4c0,1.1,0,2.2,0,3.3c0,0.3,0.1,0.4,0.5,0.4
			C52.7,62.1,54.2,62.1,55.8,62.1z M37.4,51.1c0.4,1.3,0.9,2.6,1.3,3.8c0.1,0.2,0.2,0.3,0.4,0.3c2.6,0,5.2,0,7.8,0
			c0.3,0,0.4-0.1,0.4-0.3c0-1.2,0-2.3,0-3.5c0-0.2-0.1-0.3-0.4-0.3C43.7,51.1,40.6,51.1,37.4,51.1z M69.2,51.1c-1.5,0-3,0-4.5,0
			c-0.3,0-0.4,0.1-0.4,0.3c0,1.2,0,2.3,0,3.5c0,0.2,0.1,0.3,0.4,0.3c2.6,0,5.1,0,7.7,0c0.3,0,0.4,0,0.5-0.3c0.4-1.1,0.8-2.3,1.2-3.4
			c0.1-0.3,0-0.4-0.4-0.4C72.2,51.1,70.7,51.1,69.2,51.1z M43.5,58c-1.1,0-2.2,0-3.3,0c-0.4,0-0.5,0.1-0.4,0.4
			c0.4,1.1,0.8,2.2,1.1,3.4c0.1,0.3,0.2,0.3,0.6,0.3c1.8,0,3.5,0,5.3,0c0.3,0,0.5,0,0.5-0.3c0-1.1,0-2.3,0-3.4
			c0-0.3-0.2-0.3-0.5-0.3C45.6,58,44.6,58,43.5,58z M67.4,62.1c0.9,0,1.8,0,2.7,0c0.3,0,0.5,0,0.5-0.3c0.4-1.2,0.8-2.3,1.2-3.5
			c0.1-0.2,0-0.3-0.3-0.3c-2.3,0-4.5,0-6.8,0c-0.3,0-0.4,0.1-0.4,0.3c0,1.2,0,2.3,0,3.5c0,0.3,0.1,0.3,0.4,0.3
			C65.6,62.1,66.5,62.1,67.4,62.1z"/>
		<circle class="st2" cx="47.2" cy="69.9" r="4"/>
		<circle class="st2" cx="64.7" cy="69.9" r="4"/>
	</g>
</g>
</svg>
